<?xml version="1.0"?><svg version="1.2" baseProfile="tiny-ps" viewBox="0 0 300 300" xmlns="http://www.w3.org/2000/svg" xmlns:xlink="http://www.w3.org/1999/xlink"><title>OwensForensics</title><g><g fill="#eb43f4" transform="matrix(.1 0 0 -.1 0 300)"><path d="M0 1500V0h3000v3000H0V1500z"/></g><g fill="#be35cf" transform="matrix(.1 0 0 -.1 0 300)"><path d="M0 1500V0h1460l3 398 2 397 3-397 2-398h1530v3000H1470l-3-432-2-433-3 433-2 432H0V1500zm1200 1184c0-10 98-444 110-485 5-20 10-47 9-60v-24l-18 65c-10 36-40 160-66 275-26 116-50 216-52 223l-5 12h11c6 0 11-3 11-6zm490-276c-66-286-68-293-76-285-3 2 13 81 34 173 22 93 50 214 62 269s24 107 27 115l5 15 5-12c2-6-23-130-57-275zm-606-124c47-96 86-183 85-192v-17l-90 184c-83 172-95 201-85 201 2 0 43-79 90-176zm866 172c0-15-181-378-186-373-4 3 25 70 63 149s78 162 89 185c16 35 34 56 34 39zM935 2150c54-67 95-123 92-126-5-5-41 36-141 161-50 63-64 85-52 85 2 0 47-54 101-120zm1175 116c0-6-155-201-182-230-10-11-20-18-22-15-4 3 117 160 174 227 19 21 30 28 30 18zm140-175c0-13-190-164-197-157-3 3 5 14 18 25 13 10 58 46 99 79 82 67 80 66 80 53zm-1454-77c52-42 92-79 90-82-3-2-16 4-29 14-125 96-166 130-167 137 0 14 12 6 106-69zm864-13c230-65 446-223 668-486 17-21 32-42 32-46 0-15-103-133-183-211-94-93-204-177-304-234l-73-42-98-33-97-33h-130l-130-1-65 19c-99 29-219 87-322 158l-92 63-88 83c-48 46-112 115-144 153l-57 70 10 22c16 34 153 186 219 242 263 226 460 311 699 299l90-4 65-19zM642 1875c51-25 97-50 103-56l10-11-11 3c-38 13-204 95-204 102 0 11 2 10 102-38zm1758 40c0-9-202-106-208-101-8 8-7 9 98 59 94 46 110 52 110 42zM488 1698l102-21v-18l-18 5c-9 3-57 14-105 25-49 11-91 22-95 25-9 10 8 7 116-16zm2069 16c-9-9-209-55-215-49-9 9 0 12 93 33 94 21 132 26 122 16zM460 1470v-10H170v20h290v-10zm100-215c-25-7-75-19-112-27l-68-15v8c0 4 26 13 58 19 31 6 71 15 87 20 17 4 41 8 55 8h25l-45-13zm1928-12c39-9 72-20 72-24 0-7-159 25-200 41l-25 10 40-5c22-3 73-13 113-22zM656 1069c-55-27-104-48-110-45l-11 4 95 45c52 25 102 46 110 46s-30-23-84-50zm1650 4 99-46-11-4c-10-3-189 78-202 92-15 15 26 0 114-42zM854 972c-70-63-164-134-164-123 0 10 188 161 199 161 3-1-12-18-35-38zm1306-46c47-38 87-73 89-80l4-11-14 11c-104 78-189 149-189 157v9l13-9c6-5 50-40 97-77zM947 803c-47-60-92-115-101-122-34-29-13 5 62 97 106 133 115 142 120 137 2-2-34-53-81-112zm1053 10c47-58 91-115 99-126l14-20-11 4c-9 3-177 207-197 238l-6 11h8c5 0 47-48 93-107zm-140-140c49-102 88-189 85-191-3-3-7-3-9-1-8 10-176 363-176 370 0 24 16-5 100-178zm-775-18-85-178-7 7-6 6 89 181c49 99 90 176 92 171 1-5-36-89-83-187zm190-67c-25-112-53-236-62-276l-17-72h-17l5 18c2 9 19 80 36 157 60 267 93 400 97 388 3-7-16-104-42-215zm384 75c18-82 46-202 62-268s29-129 28-140v-20l-9 20c-5 11-18 61-29 110-11 50-36 162-56 250s-39 168-41 178l-5 17h17l33-147zm-304 1341c-69-11-146-38-240-85l-100-49-85-64c-129-97-330-303-330-337 0-23 151-191 238-265 98-84 167-131 268-183 108-54 151-69 261-87l94-15 52 6c242 28 453 142 682 370 46 46 145 163 145 172 0 13-105 135-177 204-149 144-300 243-458 299l-90 32-115 3c-63 2-128 1-145-1zm232-68c28-8 73-24 99-37l48-24 61-57 62-57 31-58c16-32 38-87 47-123l17-65-5-75-5-75-20-58-21-58-45-63-46-64-49-36c-27-20-75-48-107-64l-59-27h-250l-77 37-78 37-53 50-52 50-45 83-45 83v260l28 60c15 32 46 83 67 112l40 52 62 42 62 42 65 23 66 24h150l52-14zm-207-28c1-31 25-131 38-153l9-18 13 39c7 21 13 63 14 94l1 55-37 3-38 3v-23zm100-22c0-53 20-146 31-146 14 0 53 165 44 181l-6 9h-69v-44zm102 21c-11-14-52-188-52-223v-24h21l49 103c28 56 50 109 50 119v16l-29 10-30 11-9-12zm-286-10-18-13 53-112 52-112h27v13c0 6-12 63-26 125l-26 112h-22c-12 0-30-6-40-13zm-82-40-27-24 83-104c46-57 89-107 95-111l10-7 3 9c5 14-116 260-127 260-6 0-22-11-37-23zm458 11c-5-7-33-62-61-122l-52-109 3-16 3-16 88 109c48 59 87 114 87 121s-11 20-25 29c-29 19-30 19-43 4zm-531-72c-13-14-22-29-20-34 6-14 206-172 218-172h12l-12 22c-16 30-160 208-169 208-3 0-17-11-29-24zm597-3c-41-45-148-185-148-194 0-5 4-9 9-9 10 0 206 154 216 170l7 11-23 25c-28 30-30 30-61-3zm-292-70c-9-32-26-78-38-102l-22-44-39-28c-36-26-93-49-159-63-16-4-28-11-28-16v-9l58-17c31-9 78-27 103-41l45-24 28-42c15-23 34-67 42-97s17-61 19-67c9-29 22-9 44 66l23 80 33 39 33 38 39 17c21 9 64 24 96 32l57 16-5 9c-3 5-25 14-48 20s-61 18-84 26l-41 15-39 42-39 42-23 75c-13 41-27 79-31 83l-8 9-16-59zm-370-5c-9-12-16-27-16-33v-11l118-57c64-32 123-57 130-57h14l-4 10c-5 16-200 170-215 170-6 0-19-10-27-22zm708-6c-17-15-64-54-105-87l-74-60 16-3 15-3 116 55c64 30 119 59 122 65l7 10-17 26-16 25h-17c-9 0-30-13-47-28zm-749-75c-8-12-15-30-15-40v-18l13-3c93-25 191-46 216-46h31v10c0 10-40 32-156 85l-74 34-15-22zm733-33-108-53v-21h28c36 0 210 44 221 56l10 9-14 33c-8 17-18 32-22 31s-56-25-115-55zm-759-71c-5-15-8-32-5-40l5-13h40c22 0 62 5 90 12l51 12-3 10c-3 10-62 28-130 39l-38 6-10-26zm823 11c-35-7-71-18-80-23l-17-10 15-4c8-3 30-10 49-16s56-11 83-11h49l-3 37-3 38-15 2c-8 0-43-5-78-13zm-827-94-6-10 6-30 7-30h18c9 0 50 7 89 16l72 16-4 11-3 11-50 13c-27 7-66 13-86 13h-37l-6-10zm789-4c-23-6-43-15-45-21l-4-10 65-17c36-9 77-16 93-17l27-1v80l-47-1c-27-1-67-7-89-13zm-584-43c-64-12-174-43-182-51l-9-9 7-27c3-15 12-30 19-32l11-5 109 53 109 53 4 13 4 12-24-1c-12-1-34-4-48-6zm450-6v-14l108-51c60-29 112-52 115-52 4 0 13 13 21 28l15 28-8 13-8 12-104 24c-57 14-112 25-121 25h-18v-13zm-482-78c-65-32-118-62-118-65 0-12 31-64 38-64 13 0 222 169 222 180 0 18-24 10-142-51zm442 51c0-9 144-133 191-164l27-17 21 27c12 15 21 31 21 36 0 8-238 128-254 128-3 0-6-4-6-10zm-394-105-106-86v-13c0-7 9-21 20-31l19-17 15 5c16 6 176 204 176 218 0 19-21 6-124-76zm366 72c1-8 39-61 83-116l79-101h35l15 22c9 12 16 25 16 29 0 8-179 152-209 168l-23 13 4-15zm-317-124c-47-60-85-111-85-114 0-4 12-14 26-24l26-17 12 5c11 5 106 188 120 235l7 22h-10c-6 0-49-48-96-107zm285 95c0-7 25-66 57-130l57-118h11c17 0 55 30 55 43 0 14-155 210-170 215l-10 4v-14zm-174-35c-10-10-106-213-106-223 0-4 14-13 31-20l30-13 10 10c10 10 59 203 59 234 0 19-11 25-24 12zm144-20c0-31 44-220 53-229 3-4 18-2 34 3l28 10 3 16 3 15-50 106-50 106h-21v-27zm-134-134c-9-39-16-79-16-89v-18l26-6 26-7 14 12 14 11v32c0 17-6 53-13 80l-13 50-11 3-11 4-16-72zm95 19-13-53 4-40 3-40 29 2c16 1 33 6 38 11l8 8-18 79-17 78-11 4-11 4-12-53z"/></g><g fill="#8d25a0" transform="matrix(.1 0 0 -.1 0 300)"><path d="M0 1500V0h1460v800h20V0h1520v3000H1480v-870h-9c-18 0-21 56-21 458v412H0V1500zm1205 1178c84-366 125-552 120-556-13-13-25 21-55 158-17 80-45 200-61 266-16 67-29 129-29 138 0 24 19 19 25-6zm555 17c0-4-58-259-106-465-8-36-17-75-20-87l-4-23h-23l7 42c6 36 35 163 66 293 5 22 19 81 30 130 26 111 27 115 40 115 5 0 10-2 10-5zm-671-411c50-103 91-193 91-201v-14l-11 7c-6 3-51 90-100 191l-89 185 6 9c3 5 7 9 9 9s44-84 94-186zm770-30-92-189-4 20-4 20 76 153c41 84 75 157 75 160 0 4 8 19 17 32l18 25 3-16 3-16-92-189zm-915-109c53-65 96-123 96-127 0-25-30 5-120 118l-100 125 6 11 6 10 8-9c5-4 52-62 104-128zm1166 122c0-15-185-250-201-256l-11-3 4 15c3 15 195 257 203 257 3 0 5-6 5-13zM804 2015l96-77-6-9-5-9-12 7c-35 20-197 156-197 165v10l14-5c7-3 57-40 110-82zm1456 76c0-9-191-163-210-169-32-11 2 27 88 97 91 75 122 94 122 72zm-575-91c202-63 451-244 621-451l56-69-6-26-7-26-142-142-142-143-100-66c-115-75-208-120-315-149l-75-21-95-1-95-1-80 19-80 18-91 43c-110 51-191 104-303 199l-84 71-80 92c-45 51-85 99-89 107l-8 14 44 58c45 61 191 209 261 265 148 118 320 203 463 229l47 9 115-4 115-3 70-22zm-937-180c6-18-16-11-115 37-117 56-106 49-99 62l7 10 102-50c56-27 103-54 105-59zm1657 100 6-9-100-51c-56-27-108-50-116-50h-16l6 11c5 7 187 101 212 108 1 1 5-3 8-9zM490 1704l110-26v-9c0-14-26-11-129 14l-95 23-4 12c-5 16-10 16 118-14zm2078 14-4-12-95-23c-52-12-104-22-116-23h-23v18l78 17c42 9 91 20 107 25 17 4 36 9 43 9l14 1-4-12zM470 1470v-10H160v20h310v-10zm2300 0v-10h-300v20h300v-10zM600 1271c0-11-40-24-143-46l-78-17-7 6-6 7 11 7c7 4 41 14 75 21 35 7 74 17 88 21 34 12 60 12 60 1zm1860-17 110-26v-9c0-5-6-9-14-9-15 0-119 23-189 41l-38 10 6 9c8 13-3 14 125-16zM750 1120c0-10-153-91-197-104l-23-7v22l103 49c108 53 117 56 117 40zm1555-41 106-52-9-9-9-9-106 52c-59 28-107 55-107 60 0 16 17 10 125-42zm-1405-74c0-8-199-165-210-165h-12l4 10c5 16 190 160 205 160 7 0 13-2 13-5zm1255-67c51-40 96-79 99-86l6-13-15 3c-20 4-192 139-199 156l-5 12h10c6 0 53-33 104-72zm-1122-31c-21-36-196-247-205-247h-10l5 14c3 8 49 69 103 135l97 120 9-5 8-5-7-12zm982-103c50-63 92-122 93-131l4-15-10 3c-15 6-202 242-202 256v12l13-5c6-3 53-57 102-120zm-835 47c0-6-40-93-89-195l-90-186h-10c-18 0-13 13 45 131 31 63 71 147 90 187l33 72h10c6 0 11-4 11-9zm683-173c84-176 96-208 79-208-9 0-182 359-182 378 0 34 22-3 103-170zm-533 133c0-4-11-57-25-117-73-324-104-447-114-457l-11-11v20c0 20 91 430 116 522l15 52h9c6 0 10-4 10-9zm305-13c2-13 32-142 65-287l60-265-9-9-10-10-10 39c-21 77-121 523-121 538 0 24 19 19 25-6zm-270 1203c-86-14-161-40-257-90-154-78-314-208-439-356l-71-85 27-38c16-20 78-87 139-147 148-148 265-230 417-295l70-30 82-16 81-17 96 6 95 5 78 26c149 50 291 136 436 265 81 72 211 219 211 238 0 18-102 137-188 218-146 138-326 249-478 294l-71 21-89 4-89 5-50-8zm256-71c139-47 235-137 298-280l24-55 4-110 4-110-20-59c-27-76-67-139-128-198l-48-47-66-34-66-35-72-12-72-12-79 11-80 11-68 34-69 35-44 43c-60 58-107 128-130 194l-19 54-6 73-6 72 16 69 16 69 31 58 31 58 57 54c66 63 133 104 199 122l47 13 93 1 93 1 60-20zm-229-8-13-9 18-72 18-72 9-2 10-2 8 33c5 19 8 55 6 80l-3 47-20 3c-11 1-26-2-33-6zm95 1c-15-14 3-144 23-166l7-8 17 65c9 36 16 74 16 84v20l-16 6c-20 8-39 8-47-1zm-179-20-18-4v-15c0-9 23-64 52-122l52-107 3 30 3 30-23 95-23 95-14 1c-8 1-23 0-32-3zm272-15c-9-23-50-191-50-209 0-5 5-9 11-9h10l50 106 51 106-9 8c-4 4-18 11-30 15l-23 6-10-23zm-364-37-18-20 14-19c7-10 44-58 83-106l69-88 4 11c2 5-21 62-52 125l-55 116h-14c-8 0-22-9-31-19zm456 6c-18-22-103-210-99-221l3-10 82 103 82 104-16 18c-20 22-37 24-52 6zm-536-69-16-22 13-13c28-28 192-151 196-148 6 6-25 51-91 133l-59 72h-14c-8 0-21-10-29-22zm540-79c-43-55-75-103-72-106 7-7 205 149 206 163 0 13-32 44-46 44-5 0-44-45-88-101zm-231-6c-9-32-28-77-41-100l-25-42-43-26c-24-14-67-32-97-41s-58-20-63-24l-9-9 29-6c16-4 57-18 92-32l63-25 33-39 33-39 23-76 22-76 7 9c4 4 18 39 30 76 36 113 82 157 204 192 31 9 57 20 57 24s-34 17-75 29l-75 22-43 43-44 42-24 77c-13 43-27 78-31 78s-14-26-23-57zm-359 18c-9-9-16-24-16-32v-15l110-53c60-29 115-51 121-49l11 4-93 75c-52 41-99 78-105 82l-11 7-17-19zm724 2c-14-9-60-46-104-82l-79-65 10-3c5-2 58 19 117 47l107 52 6 15 6 15-19 19-20 19-24-17zm-774-89c-3-9-6-24-6-35v-19l23-5c64-14 207-45 212-45 3 0 5 5 5 11v10l-105 50c-57 27-108 49-113 49-6 0-13-7-16-16zm737-34-103-49v-11c0-5 1-10 3-10 16 0 230 50 235 54 8 8-10 59-23 63-5 1-56-19-112-47zm-759-63c-3-9-4-24-2-34l3-18 24-3c29-5 141 19 141 30 0 9-59 26-117 35l-43 6-6-16zm793-4-58-16 8-7c12-11 97-30 132-30h30l6 11 7 10-6 25-6 24-28-1c-15-1-53-8-85-16zm-784-80-13-5v-59l13-4c6-3 44 3 82 13l70 17-4 10c-9 20-118 41-148 28zm822 2c-5-2-30-9-54-15l-44-11 9-9c5-5 43-16 83-25l75-15 8 12c4 7 7 24 6 38l-3 25-35 2c-19 1-39 0-45-2zm-640-60c-5-2-45-11-88-21-43-9-80-21-83-26s-3-20 0-34l6-24h14c19 0 216 93 216 103 0 7-45 9-65 2zm455 0c0-9 202-105 220-105h18l6 26 7 27-8 7c-4 4-50 17-101 29-91 21-142 26-142 16zm-476-77c-60-29-111-53-113-55-2-1 0-14 3-28l7-26 14-5 15-6 88 71c49 39 95 77 102 86l12 15h-9c-5 0-58-24-119-52zm446 44c0-7 109-97 183-150l18-14 20 18c10 9 19 23 19 31v14l-114 55c-121 57-126 59-126 46zm-370-74c-36-29-76-62-90-75s-28-23-32-23c-5 0-8-8-8-18v-19l18-16 17-16 11 7c13 9 125 148 148 185l18 27h-8c-5-1-38-24-74-52zm340 47c0-16 157-215 170-215 10 0 40 35 40 47 0 6-42 45-92 85-101 81-118 93-118 83zm-262-52c-45-50-138-172-138-182 0-14 39-34 54-28 18 7 127 237 112 237-1 0-14-12-28-27zm232 15c0-7 23-61 52-120l52-108h15c9 0 24 7 35 15l18 14-8 13c-13 21-156 198-160 198-2 0-4-6-4-12zm-190-48c-32-57-90-182-90-196v-14l26-6 25-7 9 9c12 12 52 193 48 218l-3 21-15-25zm150 11c0-16 48-223 54-228 7-8 66 7 66 17 0 5-22 56-50 114l-50 106h-10c-5 0-10-4-10-9zm-114-89c-10-16-35-146-30-154 3-4 19-8 36-8h31l-5 68c-3 38-10 77-15 87l-10 18-7-11zm74-50c-6-32-10-69-8-83l3-24 28-3 27-3 7 17 6 17-12 51c-20 80-22 86-30 86-5 0-14-26-21-58z"/></g><g fill="#5e196f" transform="matrix(.1 0 0 -.1 0 300)"><path d="M0 1500V0h1450l2 402 3 401 13 5 12 4V0h1520v3000H1480v-870h-30v870H0V1500zm1258 965c28-121 56-248 63-282l13-62-7-8-7-7-10 10c-5 5-16 39-24 74-8 36-31 137-51 225-57 244-64 279-58 288l5 9 13-14 13-13 50-220zm502 219c0-8-19-94-41-192-23-97-51-221-63-274-13-54-26-101-29-105l-7-7-11 11-11 11 11 38c6 22 29 120 51 219 49 219 71 308 77 318 7 11 23-2 23-19zm-665-401c50-102 90-191 90-196 0-6-6-12-13-15l-12-4-90 187c-50 103-90 193-90 201v14h25l90-187zm865 177c0-5-41-95-92-200l-91-190h-14c-7 0-13 4-13 10 0 9 51 119 140 303l42 87h14c8 0 14-4 14-10zM940 2160c52-65 97-126 98-135l4-17-16 4-15 3-96 119c-52 65-95 125-95 132v14l13-1h12l95-119zm1180 108c-1-7-45-67-99-133l-98-120-18-4-18-3 6 14c3 8 49 70 103 136l98 122h26v-12zM804 2020l96-75v-25h-12c-14 0-198 144-210 163-4 6-4 15-2 19l5 8 14-7c7-5 56-42 109-83zm1455 73v-18l-100-77c-101-79-119-89-119-64v14l103 81c56 44 105 81 110 81 4 0 7-8 6-17zm-614-78 70-17 110-53 110-54 87-65c91-70 212-185 291-277l47-56v-46l-57-69c-168-206-407-377-622-446l-86-27h-240l-70 18-70 18-110 54-110 55-77 57c-98 74-184 156-275 261l-73 83v32l57 69c129 158 317 312 480 393l88 43 80 21c107 28 127 30 220 26l81-4 69-16zm-993-136c117-57 115-56 101-70l-10-10-106 51-107 51v15c0 22 12 18 122-37zm1758 38v-13l-97-47c-54-26-105-48-113-49l-15-3v27l95 48c52 26 103 48 113 49l17 1v-13zM490 1708c58-11 109-25 115-30l10-9-13-8-14-8-61 13c-34 7-84 19-111 26l-49 13-5 13-4 12h14c7 0 60-10 118-22zm2080 8v-14l-92-21c-51-11-104-22-118-23l-25-3v29l95 22c52 12 105 23 118 23l22 1v-14zM469 1481l14-9-7-11-7-11H175l-15 10-15 10 15 10 15 10h280l14-9zm2311-11v-10h-320v20h320v-10zM610 1270c0-14-8-17-128-44l-102-22-12 7-13 8 10 10c11 10 174 48 218 50l27 1v-10zm1859-13 94-22 5-12 4-13h-29c-15 1-68 11-117 23l-89 22-5 13-4 12 24-1c13 0 65-10 117-22zM760 1120v-11l-102-49c-56-28-107-50-115-50h-13v27l98 46c53 25 105 46 115 46l17 1v-10zm1549-38 95-47 4-12 4-13-19 1c-10 0-60 21-112 47l-95 47-4 13-4 12 19-1c10 0 60-21 112-47zm-1409-77v-14l-81-63c-45-35-93-71-106-82l-24-19-11 11-10 10 23 20c105 89 186 151 197 152h12v-15zm1258-66 102-80v-15c0-25-18-15-120 66l-100 81v14c0 8 3 15 8 15 4 0 53-36 110-81zm-1118-21c0-7-43-67-95-133l-96-120-15-3-16-4 4 17c1 9 46 70 98 135l95 119h13l12 1v-12zm979-114c56-69 101-130 101-135s-6-9-14-9h-14l-101 126-101 126 5 9c4 5 10 9 15 9 4 0 54-57 109-126zm-155-119c46-95 87-183 91-194l6-21h-31l-90 187-91 187 6 14 5 13 10-6c5-3 48-84 94-180zm-683 153c-24-63-170-356-180-363-20-12-24 3-10 37 14 35 149 315 162 336 5 6 15 12 22 12h15l-9-22zm149-37c0-9-14-75-30-147-17-71-39-169-50-219-11-49-26-114-33-144l-13-55-11-3c-6-2-13 0-16 4s17 105 44 223 56 246 64 284c8 37 18 72 21 77l5 9 10-5c5-4 9-14 9-24zm311-16c4-17 16-70 28-120 11-49 36-159 56-243 19-84 35-161 35-172v-20h-10c-16 0-24 27-85 296-31 137-59 260-62 272l-6 24 19-4 18-3 7-30zm-356 1194-70-20-102-50-102-51-103-82-103-82-88-94c-49-51-93-103-99-116l-11-23 45-53c196-229 410-383 622-447l70-21 85-6 86-6 74 16c152 32 303 107 450 224 80 64 213 196 265 264l28 38-66 79c-180 216-409 372-638 435l-56 16-109-1h-108l-70-20zm268-29 67-10 71-36 71-35 55-57 54-57 34-70 35-70 10-69 11-68-7-62c-23-203-151-357-346-417l-63-19h-150l-51 14c-29 7-79 28-113 46l-62 33-57 62-57 61-24 48c-13 26-29 71-37 99l-14 52v164l24 65c31 85 77 156 138 211l50 45 61 30 62 30 55 9c76 12 104 12 183 1zm-163-52c0-22 14-85 27-118l5-15 13 35c8 19 14 54 14 78l1 42h-60v-22zm103-49c9-105 20-108 43-9 16 70 13 80-23 80h-26l6-71zm-198 41-6-10 50-107 51-106 7 6 6 7-23 97c-12 54-24 104-26 111l-3 12h-25c-14 0-28-5-31-10zm267-87c-12-54-22-107-21-118l1-20 49 100c27 55 49 108 49 118v17h-57l-21-97zm-341 49-22-17 77-98c42-54 78-96 81-93 6 6-98 226-107 226-4 0-18-8-29-18zm461 9c-13-8-104-200-100-211 4-10 139 158 145 179l4 16-19 12-19 11-11-7zm-536-70c-9-10-16-20-16-24 0-8 172-147 183-147h8l-10 18c-5 9-22 30-36 46s-40 49-58 72c-17 24-37 45-44 48l-11 5-16-18zm544-71c-40-50-70-93-67-96s47 27 97 67l91 72-4 10c-2 6-12 16-24 24l-21 14-72-91zm-235-2c-4-18-18-56-30-83l-22-50-36-31-35-32-57-21c-30-12-62-21-70-21s-16-4-19-8l-5-8 75-23 74-23 44-42 43-43 25-79 25-79 18 55c25 78 49 121 83 154l31 28 77 28 77 27-9 5c-5 3-34 13-64 22s-71 28-93 43l-38 27-23 40c-13 23-29 62-36 89-7 26-16 50-21 52l-7 5-7-32zm-375-7c-5-11-10-22-10-26 0-8 211-108 216-102 7 6-169 147-183 147-7 0-17-9-23-19zm714-2c-10-11-49-44-86-72-38-29-64-53-60-55 12-4 205 88 214 102l7 11-16 17c-21 23-36 23-59-3zm-754-80-12-21 6-13 5-13 95-22c53-12 104-20 113-17l18 4-100 48c-55 26-103 49-107 51-4 3-12-5-18-17zm729-36-94-46 16-4c19-5 201 35 212 46l9 9-11 21c-7 12-17 21-25 21-7 0-55-21-107-47zm-752-65c-3-12-3-26 0-31l6-10 64 6 65 5 10 10 9 9-65 17c-82 20-83 20-89-6zm803 3-65-18 40-11c22-7 59-12 83-12h43l-3 27-3 28-15 2c-8 1-44-7-80-16zm-805-91c-3-6-3-19 0-30l6-20h22c21 0 85 15 117 27l15 5-35 13c-19 8-54 14-77 14l-42 1-6-10zm785-5-35-13 15-5c33-13 96-27 118-27h22v60l-42-1c-24 0-59-6-78-14zm-590-42c-43-8-173-43-178-48-8-8 17-57 27-53 5 2 52 23 105 48 112 53 124 67 46 53zm475-3c4-7 50-32 101-57l94-44 9 5c5 3 11 15 14 25l5 20-12 9c-6 5-47 17-91 26-44 10-91 21-104 24l-24 5 8-13zm-508-82c-59-28-107-55-107-59s8-16 18-28l17-22 87 70c77 63 107 91 95 91-2 0-51-23-110-52zm463 48c0-2 40-36 89-75l89-71h31l10 19 11 19-13 10c-13 11-201 102-211 102-3 0-6-2-6-4zm-419-107c-50-38-91-73-91-75 0-15 23-44 35-44h13l64 83c67 86 82 107 75 107-3 0-46-32-96-71zm399 63c0-12 139-182 149-182 4 0 15 8 24 18l16 17-7 11c-4 5-29 28-57 49-27 22-52 42-55 45s-20 16-37 29l-33 22v-9zm-347-115-72-91 16-18c9-10 21-18 28-18h12l51 106c29 58 52 107 52 110 0 16-24-9-87-89zm312 73c10-34 94-200 101-200 14 0 44 22 44 33s-101 141-137 177l-15 15 7-25zm-206-32c-7-12-30-59-52-103l-38-79 17-13c25-18 42-16 48 5 20 70 48 204 43 208-3 3-11-5-18-18zm161 7c0-25 41-199 48-207l7-7 23 5 22 6v13c0 16-87 205-95 205-3 0-5-7-5-15zm-129-110c-6-22-14-56-17-76l-6-37 21-7 21-6 10 6 10 6-1 42c0 23-6 58-13 77l-13 35-12-40zm84-18c-4-29-5-64-3-78l3-24 15-2c8-2 21 1 28 5l12 8-16 72c-9 40-20 72-24 72h-9l-6-53z"/></g><g fill="#32113e" transform="matrix(.1 0 0 -.1 0 300)"><path d="M0 1500V0h1450v810h30v-17c1-10 0-192 0-405l-1-388h1521v3000H1490l-2-437-3-438h-30l-3 438-2 437H0V1500zm1222 1140c9-36 28-119 43-185s38-166 52-223l24-103-6-9c-4-6-12-10-20-10h-14l-5 18c-14 49-126 553-126 567v16l17-3 18-3 17-65zm538 39c0-31-47-249-99-459l-27-105-17-3-17-3v20c0 12 13 76 29 144 16 67 41 176 56 242s31 137 36 158l10 37h29v-31zm-663-389c50-102 92-193 92-202l1-18h-36l-25 53c-14 28-55 116-93 194l-68 142 7 11c4 6 12 9 18 8 7-2 53-87 104-188zm861 168 3-15-90-187-90-186h-31v15c0 15 30 82 129 288l53 108 11-4c7-2 13-11 15-19zM897 2218c32-40 60-75 63-78 26-26 79-100 82-115l3-18-11-4-12-4-48 58c-27 32-52 60-55 63-15 13-109 142-109 150 0 7 6 11 27 19 1 1 28-32 60-71zm1223 47c0-7-45-70-101-140l-101-126-11 4c-7 2-13 10-15 18l-3 14 86 105c48 58 95 115 106 128l20 23 9-6c6-3 10-12 10-20zM799 2029c56-45 104-85 107-91l6-10-10-10-11-11-38 26c-21 15-51 38-67 52s-49 40-73 58l-42 32-1 18v17h14c8 0 60-36 115-81zm1467 69 7-12-37-32c-20-18-71-58-112-90l-75-57-12 12-11 11 24 25c44 43 185 154 197 155 6 0 15-5 19-12zm-591-87c206-61 439-226 623-440l72-84v-36l-52-63c-202-242-450-414-679-472l-65-16h-211l-79 20-79 20-85 41c-78 37-196 111-258 162s-198 187-243 243l-49 62v45l47 56c116 136 279 280 409 358 89 54 236 110 334 127 14 3 75 3 135 1l110-4 70-20zM660 1882l95-48 3-17 3-17h-14c-8 0-62 22-121 50l-106 50v30h23l22-1 95-47zm1752 33 2-10-100-52-99-53-20 3-20 2v27l95 48 95 48 23-2 23-1 1-10zM512 1708l98-23v-13c0-7-7-15-15-18l-15-6-93 22c-50 12-100 24-109 26l-18 5v29h28c15 0 71-10 124-22zm2068 13c0-13-22-28-50-33-14-3-60-13-104-22l-78-17-15 5-15 6 4 12 4 12 90 22c49 12 106 23 127 23l37 1v-9zM478 1468l3-18H150v13c0 8 3 17 7 21l7 6 155-2 156-3 3-17zm2297 2v-15l-149-3-149-3-10 10-9 9 7 11 6 12 152-3 152-3v-15zM607 1275c3-9 3-18 0-21-6-6-213-54-233-54h-14v38l33 7c17 4 59 13 92 20 73 17 98 22 108 24 4 0 10-6 14-14zm1883-19 85-21v-30l-34 2c-40 2-179 32-204 45l-18 9 11 14 12 14 31-6c18-4 70-16 117-27zM758 1119l3-15-58-29c-32-15-82-39-112-52l-54-24-10 10-11 11 12 13c18 18 195 105 212 103l15-1 3-16zm1546-30 106-51v-19c0-10-4-19-9-19-15 0-219 99-226 110s2 30 15 30c4 0 56-23 114-51zm-1394-76c0-15-16-30-111-106l-96-77h-33v29l73 58c39 33 86 69 102 81 30 21 65 29 65 15zm1249-68c98-77 113-93 105-107-11-18-36-4-133 73l-101 81v28h35l94-75zm-1115-24 6-9-22-28c-62-82-167-211-181-223l-16-13-11 7c-5 3-10 10-10 15s45 65 101 134l101 126h13c8 0 16-4 19-9zm971-103c49-62 93-119 98-125l9-13-6-15-6-16-15 8c-21 12-205 245-205 261v12h35l90-112zm-825 38c0-20-176-382-190-391l-12-7-10 10-10 10 40 84c160 333 146 308 169 308h13v-14zm680-173 91-187-3-14c-2-9-8-17-15-19l-12-4-90 187c-50 103-91 195-91 206v18h30l90-187zm-534 133 6-14-16-59c-9-32-32-130-51-218-20-88-43-190-52-227l-15-67-15-5-14-6-5 15-6 15 31 137c62 279 91 399 101 421 11 25 28 29 36 8zm309-36c7-25 20-76 28-115 9-38 32-139 52-223 19-84 35-168 35-187v-35h-10c-15 0-27 30-49 130-11 52-39 172-61 265-22 94-40 180-40 193v23l16-3 17-3 12-45zm-313 1205c-220-50-423-182-633-412l-79-86v-37l69-78c166-188 369-334 558-399l78-27h280l80 27c207 72 420 227 589 430l49 58-10 22c-17 38-190 213-281 285-48 38-124 90-169 116l-83 46-91 31-91 30-101 5-102 4-63-15zm291-46c146-49 257-159 311-309l26-71v-177l-20-64-20-64-30-45c-67-102-161-175-275-215l-50-18-95 1h-95l-50 17c-27 10-76 31-108 48l-58 31-52 57-52 56-33 66-32 65-12 76-11 75 12 73 12 73 30 62 30 63 47 55 47 55 50 32c70 45 109 60 190 73l70 12 55-4c30-2 81-13 113-23zm-227-27c-5-9 18-119 27-128 7-7 21 90 18 124l-1 12h-19c-11 0-22-4-25-8zm97-8c-7-19 4-105 16-117l8-8 13 60 12 59-6 11c-4 6-14 11-22 11h-15l-6-16zm-189-19-6-15 46-93 47-92-6 35c-3 19-12 68-21 108l-16 72h-39l-5-15zm282-2c-5-18-34-142-41-175-7-38 8-14 51 78l46 97-14 8c-21 14-36 10-42-8zm-366-38-12-14 63-81c34-44 64-78 67-76 2 3-15 46-38 96l-43 90h-12c-7 0-18-7-25-15zm414-80c-24-52-44-98-44-101 0-4 32 33 70 81l70 88-11 13c-6 8-18 14-26 14h-14l-45-95zm-482 23c-7-7-12-17-12-22 1-13 149-131 155-124 3 2-12 24-33 49-20 25-48 60-61 77-27 35-32 37-49 20zm550-60c-32-40-62-79-67-87l-9-15 45 32c24 18 64 49 89 71l45 38-14 17c-7 9-17 16-22 16-4 0-34-33-67-72zm-256-48-18-60-29-40-29-39-37-19c-21-11-56-25-78-32s-43-15-47-19l-8-7 71-24 70-24 39-39 39-39 23-69 22-69 6 7c4 5 13 28 20 53 8 25 25 62 37 83l24 38 45 29 45 28 50 12 51 12-9 7c-4 4-35 15-68 25l-60 18-46 47-47 46-18 60c-10 33-21 63-24 68l-6 7-18-60zm-354 38c-7-7-12-18-12-25v-13l78-38c84-41 112-53 112-48 0 3-110 93-156 127l-10 9-12-12zm656-51c-42-34-77-65-77-69-1-8 169 68 182 82l9 8-11 21c-7 12-15 21-19 20-4 0-42-28-84-62zm-704-42c-4-8-4-21-1-28l5-12 74-18c41-9 85-17 99-16h24l-90 44c-102 50-104 50-111 30zm740-29-89-45h24c28-1 163 29 174 40l9 7-7 21c-3 12-10 21-14 21s-48-20-97-44zm-764-80v-26h33c17 0 50 5 72 11l40 12-20 7c-11 4-44 11-72 15l-53 7v-26zm801 12-45-10 18-10c10-6 42-11 70-12l51-1v40l-25 2c-14 1-45-3-69-9zm-794-85c-10-9-9-41 1-47 5-3 24-1 43 3 19 5 48 12 64 16l30 7-45 14c-49 15-83 18-93 7zm783-7-35-14 15-5c8-3 38-10 65-16l50-10 8 9c5 4 7 16 5 26l-3 19-35 2-35 2-35-13zm-687-68-83-20v-48h15c13 0 172 74 183 85 10 10-34 3-115-17zm577 16c0-3 39-23 86-45l85-41 15 6 14 5v39l-92 21c-100 23-108 24-108 15zm-10-64c19-17 59-49 88-72l52-40 15 12c8 7 15 18 15 24v12l-47 23c-27 13-73 34-103 47l-55 24 35-30zm-521-21c-46-22-86-42-87-44-7-7 10-45 19-45 11 0 144 104 154 120 9 15 7 14-86-31zm76-36c-26-21-61-50-78-64l-30-26 6-16 6-17h29l54 68c85 105 87 112 13 55zm451-46 68-85 18 9c10 5 18 16 18 23v13l-75 59c-41 33-80 61-86 63s19-35 57-82zm-106 48c0-3 20-46 45-95l45-90h14c7 0 18 6 24 13l11 13-65 82c-59 76-74 91-74 77zm-320-80-62-76 17-19c10-11 21-17 25-15 11 7 92 176 87 182-3 2-33-30-67-72zm71-31-42-87 5-14 5-13h41l4 23c3 12 12 55 21 96 9 40 14 75 12 78-3 2-23-35-46-83zm210 66c0-14 8-59 18-100l18-75 18-3c9-2 21 0 26 5l10 10-45 94-45 94v-25zm-135-80c-16-66-23-110-18-115 3-3 13-5 23-5h17l5 26 5 26-13 46-12 47-7-25zm90 2c-4-7-10-37-13-67l-6-55h53l-1 28c0 15-6 45-13 67l-12 40-8-13z"/></g><g fill="#101111" transform="matrix(.1 0 0 -.1 0 300)"><path d="M0 1500V0h1440v795l9 14 9 14 16-6 16-6V0h1510v3000H1500v-856l-14-19-14-19-16 13-16 13v868H0V1500zm1208 1208c9-12 63-237 113-472 11-49 21-91 24-94 8-8-15-42-30-42-20 0-23 8-44 107-21 94-35 155-82 356l-30 129 5 14c7 17 30 18 44 2zm560-14c2-12-18-113-44-225-25-112-53-235-62-274-8-38-20-76-25-82-13-18-34-16-41 2l-5 15 24 107c54 242 91 397 107 451l10 33 16-3 17-3 3-21zm-747-234c5-8 48-95 95-193l85-179-5-14-5-14h-37l-48 98c-26 53-69 142-96 196l-48 100 5 13 6 14 20-3c11-2 24-10 28-18zm946 4 6-15-87-177c-47-97-90-184-95-192l-8-15h-38l-3 16-3 16 84 174c46 96 87 182 90 192l6 17h42l6-16zM949 2164l101-126v-38h-39l-100 123-101 122v45h39l100-126zm1175 101v-20l-99-122-98-123h-38l-5 15-6 14 39 48c21 26 62 77 91 113 30 36 60 73 68 83l15 18 17-3 17-4-1-19zM804 2034l106-86v-38h-45l-35 30c-19 17-63 52-97 78l-63 47v55h14c8 0 62-39 120-86zm1469 71 6-14-17-20c-9-11-57-52-106-91l-90-70h-17c-10 0-21 5-24 10l-7 11 14 16c7 9 45 41 83 72 39 30 81 66 95 78 14 13 32 23 41 23h17l5-15zm-675-71c99-20 146-36 232-78 130-64 243-147 374-274 84-82 176-194 176-214v-16l-70-81c-201-232-395-372-620-447l-85-28-135-1h-135l-60 18c-127 38-272 114-395 210-78 60-222 202-279 275l-41 54v38l71 82c87 101 186 194 288 271l76 57 100 49 100 49 80 21c128 33 215 37 323 15zm-933-147 100-52v-40l-17-3-16-3-111 56-111 55v13c0 41 37 35 155-26zm1750 28v-20l-109-53-109-53-13 5-14 5v36l103 52 102 52 20-2 20-2v-20zM468 1724c42-8 94-20 115-25l37-10v-13c0-8-6-19-14-25l-14-12-84 20c-45 10-98 22-115 26-36 7-48 19-39 40l5 15h16c9 0 51-7 93-16zm2118 5 6-11-13-13-14-14-108-25-108-26-20 10c-43 24-17 40 116 70 44 10 92 19 107 19l27 1 7-11zM474 1494l16-6v-36l-16-6c-9-3-79-6-155-6H179l-20 10c-22 12-25 36-6 43 18 8 302 8 321 1zm2301-8 20-15-10-10c-12-11-48-13-212-12l-123 1v13c0 7 5 18 11 24l11 11 142 1 141 2 20-15zM615 1265v-20l-55-12c-30-7-83-19-117-28l-61-15-16 6-16 6v37l38 11c72 21 167 38 197 37l30-2v-20zm1846 4 104-21 15-14 14-14-16-16-15-16-39 11c-22 7-72 18-113 26-40 8-80 20-87 26l-14 12 11 13c15 18 17 18 140-7zM768 1119l3-16-106-52-106-52-22 3-22 3v30l100 52 100 53 25-3 25-2 3-16zm1550-29 102-49v-41h-20c-24 0-225 93-234 109l-7 11 6 10c12 20 51 9 153-40zm-1408-80v-19l-71-60c-40-33-89-72-110-87l-38-26-16 6c-8 3-15 12-15 20v14l68 54c134 108 147 117 165 118h17v-20zm1255-61 100-80v-44l-15-2-15-3-90 71c-49 38-98 79-107 90l-17 20 6 14 5 15h17l16-1 100-80zm-1115-31v-23L947 770 844 645h-29l-3 20-3 20 23 31c13 17 58 75 101 128l78 96h39v-22zm946-66c38-48 85-108 103-134l33-46-6-11c-4-6-15-11-25-11h-17l-85 107c-46 59-92 119-102 135l-19 27 7 11c3 5 14 10 23 10h17l71-88zm-802 13 6-16-40-85c-74-157-141-289-155-303l-13-13-12 7-12 7 5 27c6 28 161 357 179 378 14 18 35 16 42-2zm683-182 96-196-10-16c-13-20-33-21-44-1-29 49-179 371-179 383 0 17 9 27 27 27h14l96-197zm-533 132 5-14-19-73c-11-40-38-154-60-253-23-99-46-197-51-217l-10-38h-19c-10 0-22 5-25 11l-7 10 17 72c9 40 25 110 36 157s26 112 34 145c7 33 21 94 31 135 9 41 22 78 27 82 13 8 34 0 41-17zm363-266c34-151 63-284 63-295v-22l-14-11-13-11-11 12c-5 7-14 33-20 58s-29 124-52 220c-22 96-47 206-55 244l-15 69 11 14 11 13 16-9 16-9 63-273zm-352 1434c-11-2-46-11-78-19l-58-14-92-46c-164-82-336-224-474-391l-35-43 28-37c15-21 71-81 123-134l96-96 85-62c145-107 290-172 428-191l77-10 60 5c198 19 399 121 609 309 40 36 100 98 134 140l62 75-32 38c-17 21-68 76-112 122l-81 83-99 75-98 74-92 44-91 45-79 20-79 20-91-1c-50-1-100-3-111-6zm205-23 65-10 62-32 63-31 59-53 59-54 26-44c14-24 34-68 45-97l20-54 6-70 7-70-11-63-10-63-35-73-35-72-62-62c-33-34-66-62-71-62s-22-8-36-19c-35-24-110-48-191-60l-64-10-76 15-76 15-65 32-65 32-61 61-61 61-32 64-31 64-15 83-16 82 11 63c23 127 65 210 154 298l46 46 60 32 60 32 63 14c77 17 124 18 207 5zm-160-61c0-5 5-31 12-57l12-47 7 25c4 14 7 40 8 58l1 32h-40v-11zm100-32c0-24 3-47 7-51l7-7 13 42c13 46 10 59-13 59h-14v-43zm-190 10c0-20 53-134 56-122 2 6-2 37-9 70l-12 60-17 3-18 3v-14zm266-56c-22-95-20-96 20-18l35 68-6 9c-4 6-12 10-20 10h-13l-16-69zm-351 18-7-10 48-62c26-34 51-66 56-72 5-5-8 27-29 73l-38 82h-12c-6 0-15-5-18-11zm426-55c-17-37-30-68-28-70 1-2 24 24 50 57l48 59-6 10c-3 6-12 10-20 10h-13l-31-66zm-507-5-7-12 24-19c13-10 44-33 69-50l45-32-15 20c-8 10-17 21-20 24s-18 22-33 43l-28 37h-14c-8 0-17-5-21-11zm594-16c-13-16-35-43-48-62l-23-33 19 10c10 6 39 28 63 50l44 38-7 12c-11 18-20 15-48-15zm-648-58c-7-9-11-17-9-19 8-8 133-66 141-66 5 0-18 23-51 50-33 28-62 50-64 50-3 0-10-7-17-15zm356-47-20-62-40-41-41-41-65-23-65-24 52-18c103-35 142-73 179-173l22-61 5 15c3 8 11 32 17 52s24 55 40 77l30 41 47 23c27 13 61 27 77 31l29 7-9 8c-5 4-31 16-58 26l-49 18-38 34-38 34-27 70c-15 38-28 69-28 69-1 0-10-28-20-62zm322 14c-31-25-55-48-54-50 2-2 34 12 70 30l67 33-3 14c-5 26-23 21-80-27zm-721-56-6-15 7-5c12-7 129-36 143-36 15 1-81 53-117 64l-22 7-5-15zm748-22-70-35 35 6c19 3 56 11 83 16l47 11v38h-12c-7 0-44-16-83-36zm-765-73v-21h38c20 0 43 4 50 9l14 8-37 7c-20 4-43 10-51 13l-14 5v-21zm822 5-44-11 8-8c4-4 27-7 51-7h43v20c0 22 1 22-58 6zm-822-106v-21l38 6c20 4 46 9 57 13l20 6-25 7c-14 4-40 7-57 8l-33 1v-20zm785 10-20-8 15-5c8-3 34-8 58-11l42-6v40l-37-1c-21 0-47-4-58-9zm-665-61c-14-5-44-14-67-19l-43-11v-10c0-5 7-12 15-15l15-6 65 31c79 37 88 56 15 30zm585 4c6-6 41-24 78-41l68-31 5 14c9 24-3 32-67 44-33 7-68 15-78 18l-16 6 10-10zm-579-85-79-39 16-16 16-16 33 26c45 35 104 86 98 85-3 0-41-18-84-40zm563 18c7-9 35-32 62-52l49-35 10 6c5 3 10 12 10 18v12l-43 19c-23 11-55 26-72 34l-30 15 14-17zm-484-58c-15-13-44-36-62-52l-34-29 15-16 16-15 14 20c8 11 31 40 50 63 49 58 49 65 1 29zm482-47 48-60 10 3c6 1 11 9 13 17l2 14-54 43c-30 23-57 42-61 42s15-27 42-59zm-452-32-48-61 16-15 15-16 27 52c28 56 46 101 41 101-2 0-25-27-51-61zm356 59c-1-12 57-136 67-142l10-6 11 14 11 14-32 39c-18 21-41 50-50 64-9 13-17 21-17 17zm-280-88c-17-34-31-69-31-77v-14l17 3 17 3 17 70c10 38 16 71 14 73s-17-24-34-58zm219 52c0-8 8-43 17-78l17-64h37l-7 23c-11 36-63 133-64 119zm-149-101-12-54 13-8c7-4 16-5 20-3 10 6 9 59-1 94l-8 25-12-54zm96 33c-4-4-7-27-7-51v-43h40l-6 28c-4 15-10 37-13 50l-6 23-8-7z"/></g></g></svg>
