<?xml version="1.0"?><svg version="1.2" baseProfile="tiny-ps" viewBox="0 0 300 300" xmlns="http://www.w3.org/2000/svg" xmlns:xlink="http://www.w3.org/1999/xlink"><title>Logo</title><g><g fill="#ed48f5" transform="matrix(.1 0 0 -.1 0 300)"><path d="M0 1500V0h3000v3000H0V1500z"/></g><g fill="#c037d0" transform="matrix(.1 0 0 -.1 0 300)"><path d="M0 1500V0h1490l3 417 2 418 3-417 2-418h1500v3000H1500l-3-432-2-433-3 433-2 432H0V1500zm1762 1134c-5-27-29-132-52-234s-47-204-52-227c-5-24-13-43-18-43h-8l14 58c8 31 34 147 59 257s48 211 51 224c10 44 15 13 6-35zm-507-71c56-246 66-290 80-350 8-34 15-68 15-75l-1-13-8 15c-5 8-18 58-30 110-11 52-38 170-59 263l-38 167h7c4 0 20-53 34-117zm-133-288c50-102 88-189 84-192-5-5-186 358-186 373 0 20 24-22 102-181zm834 160c-9-35-169-356-174-350-6 5 168 375 176 375 2 0 1-11-2-25zm-989-277c50-62 93-119 98-127l8-14-12 7c-16 10-191 229-191 238 0 16 11 5 97-104zm1058-18c-53-67-100-119-103-116-2 3 0 11 5 18 83 107 186 228 190 224 3-3-39-59-92-126zM848 2011c45-35 82-68 82-73v-9l-18 13c-76 55-182 143-182 150v9l18-13c10-7 55-42 100-77zm1382 51c-19-15-65-51-102-80s-68-49-68-44c0 13 192 164 199 156 3-3-10-17-29-32zm-525-62c205-65 425-225 608-441l47-56v-38l-73-82c-179-203-372-341-574-409l-78-26-100-5-101-6-84 17-85 17-110 53-110 54-65 48c-36 26-92 70-124 98-59 51-209 215-227 247l-9 18 61 76c118 146 310 303 464 379l80 40 85 23 85 23 120-4 120-4 70-22zM682 1885c51-25 97-50 103-56l10-11-11 3c-36 12-203 95-204 102 0 11 2 10 102-38zm1728 40c0-10-203-105-209-99-3 4-1 9 4 11 6 2 51 23 100 48 90 44 105 49 105 40zM555 1704c50-12 81-23 70-23-11-1-62 9-112 21l-93 22v17l23-7c12-4 63-17 112-30zm1925-1c-52-13-104-22-115-20l-20 2 80 19c44 10 91 22 105 26s30 5 35 1l10-5-95-23zM443 1483c-40-2-107-2-150 0l-78 3h300l-72-3zm2250 0c-40-2-107-2-150 0l-78 3h300l-72-3zM640 1291v-9l-67-16c-38-8-88-17-113-20l-45-6 105 29c126 34 120 33 120 22zm1810-17c36-8 79-18 95-23l30-9-22-1c-12-1-62 8-112 20l-91 21v20l18-7c9-4 46-13 82-21zM790 1145c0-5-147-80-187-96l-24-9 7 11c3 6 47 30 98 54 92 44 106 49 106 40zm1487-28c106-52 135-68 130-74-5-5-185 82-201 98-17 16 0 10 71-24zm-1353-95c-10-9-161-130-181-145l-13-9v9c0 13 191 165 198 158 3-3 1-9-4-13zm1319-124c12-9 19-19 16-22-7-7-199 144-199 156 0 8 30-14 183-134zm-1179 40c-18-31-188-237-192-233-6 6 4 20 103 144 44 55 84 100 88 101h8l-7-12zm961-107c89-111 115-150 80-121-18 15-185 226-185 234 0 15 16-2 105-113zm-145-129c46-95 81-175 77-178-5-6-177 341-177 359v11l8-9c5-6 46-88 92-183zm-687 141c-32-77-164-335-169-330-7 7 167 367 177 367h8l-16-37zm134-125c-14-57-43-179-64-273l-38-170-3 20c-3 19 80 404 110 510l11 40 4-12c2-7-7-58-20-115zm323 116c0-3 27-122 60-264 57-246 67-301 54-288-3 3-32 125-65 270-33 144-62 269-64 276l-4 12h9c6 0 10-3 10-6zm-265 1177c-212-35-455-189-657-416-44-49-83-95-85-102l-5-12 21-27c177-225 447-424 641-472 155-38 204-41 319-17 236 50 477 211 680 454l51 62-9 17c-17 31-135 157-209 225-145 133-299 225-447 267l-70 20-90 5-90 4-50-8zm208-66 68-14 51-28c110-60 193-160 229-274l19-61v-175l-20-58c-27-78-71-145-132-200l-50-45-61-30-62-30-70-9-70-10-70 9-70 10-71 35-72 35-58 63-59 63-26 54-27 55-13 76-13 77 16 81 16 80 24 48 23 47 57 61 57 62 60 31c108 58 206 72 324 47zm-180-13-12-7 10-45c19-87 30-120 39-120 14 0 30 68 30 128v52h-27c-16 0-33-4-40-8zm94 1c-10-10-8-62 6-120l12-51 10-2 10-2 19 76 19 75-6 16-6 15h-29c-16 0-32-3-35-7zm-182-27-19-14 54-111c29-61 57-111 61-111 19 0 17 26-8 134l-26 116h-22c-12 0-30-6-40-14zm251-96c-14-61-26-117-26-126v-16l12 4 13 5 53 108 54 109-18 13c-10 7-28 13-40 13h-22l-26-110zm-332 57-26-23 80-101c126-158 136-154 53 21l-60 126h-10c-5 0-22-10-37-23zm448 11c-11-15-112-231-112-241 0-4 4-7 9-7 13 0 171 199 171 215 0 7-11 20-25 29-29 19-30 19-43 4zm-521-72-23-25 7-11c11-17 205-170 216-170h10l-12 23c-17 32-159 207-168 207-4 0-18-11-30-24zm587-3c-46-50-148-184-148-195v-10l14 5c8 3 60 43 115 87l101 82-7 12c-10 19-36 46-43 46-3 0-18-12-32-27zm-273-25c-2-7-13-44-26-83l-22-70-41-41-41-42-78-24-78-25 2-9c1-5 38-21 82-35l80-26 38-41 38-40 22-73c12-41 25-78 30-83l7-8 22 73 22 74 26 38 26 39 40 20c23 12 68 29 101 38s60 21 60 25-28 16-63 26-83 29-108 44l-44 26-24 47c-13 26-31 73-40 105-17 58-23 67-31 45zm-379-53c-9-13-16-27-16-30 0-6 205-109 238-119l22-7v10c0 14-198 171-215 171-7 0-20-11-29-25zm637-50c-146-119-141-128 26-49l121 58v13c0 8-5 23-10 34l-11 19h-17l-17-1-92-74zm-673-24c-5-11-10-29-10-40v-19l93-21c51-12 105-23 119-24l27-2 3 10 3 10-105 52c-58 29-108 52-112 53-4 0-12-9-18-19zm713-34-103-52v-12c0-7 4-13 8-13 17 0 235 50 240 55 3 3 1 19-4 37l-10 33-14 2c-8 1-61-21-117-50zm69-57c-40-9-78-22-83-27l-10-10 59-17c32-9 69-16 83-16 44 0 63 38 37 72l-13 16-73-18zm-808-3c-3-9-4-26-2-39l3-23 45 1c54 1 130 21 130 34 0 11-56 27-123 36l-47 7-6-16zm3-84c-4-3-7-19-7-35v-29l14-5c13-5 98 8 149 23l18 5-4 11-3 11-50 13c-54 14-107 17-117 6zm761-9c-27-9-48-19-48-24v-9l58-11c31-6 69-15 84-20l28-9 11 20c5 11 9 30 7 42l-3 22-45 2-45 1-47-14zm-568-44c-14-4-60-16-102-25l-78-17v-22c0-12 6-30 13-41l14-18 109 54 109 54 3 13 4 12-24-1c-12 0-34-4-48-9zm435 0-6-10 116-57 117-57 14 19c8 10 14 29 14 41v22l-77 17c-43 9-91 20-107 26-38 12-63 12-71-1zm-462-80c-68-32-123-62-123-65 0-14 34-55 46-55 16 0 214 157 214 170 0 16-9 13-137-50zm427 51c0-5 44-46 98-90l97-80 17-1h17l11 19c5 11 10 26 10 34v14l-120 57c-130 61-130 60-130 47zm-378-101c-55-43-103-84-107-90l-7-11 23-25c12-13 26-24 30-24 9 0 179 211 179 222 0 18-21 5-118-72zm348 70c0-10 155-206 171-216l10-6 25 23c13 12 24 26 24 31 0 9-211 178-222 178-5 0-8-4-8-10zm-246-52c-17-18-57-67-88-108l-58-74 22-18c12-10 30-18 40-18h17l53 113c29 61 54 118 57 125l5 12h-9c-5 0-23-15-39-32zm216 25c1-19 111-238 121-242 16-5 59 20 59 35s-158 214-171 214c-5 0-9-3-9-7zm-220-144-55-111 20-14 20-15 20 3 20 3 27 110c26 105 28 135 10 135-4 0-32-50-62-111zm190 96c0-8 12-65 26-126l26-111 31 6c17 4 35 10 39 14l8 8-52 112-53 112h-25v-15zm-128-147-19-83 10-12 9-13h58v51c0 56-18 139-30 139-5 0-17-37-28-82zm104 70c-2-7-9-34-16-59l-12-45 4-35 3-34 33-3 32-3 6 15 6 15-17 75c-9 42-21 79-26 82l-9 5-4-13z"/></g><g fill="#8e26a0" transform="matrix(.1 0 0 -.1 0 300)"><path d="M0 1500V0h1480v815l10 15 10 15V0h1500v3000H1500v-871l-10 6-10 6v859H0V1500zm1236 1163c3-16 14-62 24-103s27-115 38-165c12-49 31-130 42-179 12-48 19-91 15-94-12-12-24 17-44 108-11 52-39 173-61 269-22 95-40 177-40 182 0 21 20 6 26-18zm539 5c-90-397-124-540-129-545-3-4-9-3-12 0l-7 6 38 163c97 425 90 398 105 398h10l-5-22zm-726-230c5-13 43-92 85-177 74-150 85-181 68-181-8 0-183 357-182 373 0 16 21 6 29-15zm921 15c-1-13-169-356-180-367l-10-10v16c0 9 38 95 84 192l85 176h10c6 0 11-3 11-7zm-996-296c92-114 107-137 87-137-12 0-201 235-201 250 0 23 20 3 114-113zm1144 94c-7-10-51-66-98-124l-84-107h-27l7 13c5 6 50 65 102 129l94 118 9-6 9-5-12-18zm147-150 5-10-99-80c-92-74-128-96-119-71 2 7 197 168 205 170 1 0 4-4 8-9zm-1430-73 94-73v-12c1-7-2-13-6-13-11 0-197 150-201 161-9 23 27 3 113-63zm855-19c217-68 433-220 609-429 25-30 52-61 59-68 6-7 12-18 12-24 0-36-213-256-340-352l-75-57-110-54-110-54-70-17-70-18-100 1h-100l-70 17-70 16-110 55-110 54-85 65c-128 97-296 266-323 323l-10 23 26 37c34 48 153 171 237 244 162 141 349 235 515 260 28 4 91 6 140 3l90-4 65-21zm-996-125c86-42 116-64 86-64-13 0-210 99-210 105 0 13 37 1 124-41zm1716 38c0-10-186-102-207-102h-17l11 11c15 15 183 97 201 98 6 1 12-2 12-7zM528 1719c53-12 104-25 112-29l15-9-15-5-15-6-99 23-100 23-4 12c-5 15-8 16 106-9zm2042 12c0-5-7-12-16-15-19-7-193-46-207-46h-9l4 12 4 12 95 22c108 25 129 27 129 15zM514 1491l6-9-16-6c-20-8-242-8-271 0l-23 6 6 9 5 9h288l5-9zm2251-1 6-10h-302l6 10 6 10h278l6-10zM644 1291l6-9-112-26c-61-14-114-24-116-21-12 12 17 24 93 40 44 9 81 18 84 21 8 7 40 4 45-5zm1811-13c97-21 125-31 113-43-5-5-141 22-210 41-18 5-25 24-10 24 4 0 52-10 107-22zM790 1142c0-8-184-102-200-102-6 0-10 5-10 10v11l93 44c93 44 117 51 117 37zm1524-38c84-40 116-64 87-64-16 0-199 88-206 99l-6 11h15c8 0 58-21 110-46zm-1384-74c0-12-183-160-199-160-15 0-14 17 3 27 14 8 58 42 135 106 47 38 61 44 61 27zm1230-60c48-38 93-76 100-85l12-15h-13c-14 0-173 123-198 153l-13 17h12c7 0 52-31 100-70zm-1090-29c0-14-181-236-196-239-8-2-14-1-14 3 0 3 43 60 96 125 87 109 114 136 114 111zm958-105c87-108 104-136 84-136-10 0-180 212-188 235l-6 15h9c5 0 51-51 101-114zm-818 42c0-19-173-368-182-368-15 0-8 19 79 199 78 163 103 204 103 169zm666-157c45-92 85-177 88-189l7-22h-22l-84 176c-81 168-95 205-77 203 4 0 44-75 88-168zm-516 122c-1-20-128-554-134-560-20-20-12 30 38 251 31 135 56 250 56 255 0 20 20 61 30 61 5 0 10-3 10-7zm299-30c6-21 24-99 40-173 17-74 42-184 55-244 14-61 23-112 21-115-11-10-23 17-38 84-67 286-107 466-107 475 0 5 4 10 10 10h9l10-37zm-234 1196-70-7-80-27c-103-34-212-91-300-157-74-55-280-255-309-300l-18-27 7-20c3-11 59-73 123-139l117-120 75-55c97-71 205-129 305-163l80-28h280l64 22c156 56 291 138 435 266 67 59 193 198 203 224l5 12-37 48c-61 77-221 226-314 293l-86 62-83 39c-145 67-265 91-397 77zm191-63c64-17 141-58 196-105l41-35 38-59 38-59 15-52c9-28 18-77 22-108l6-56-11-68-12-69-30-63-31-63-51-52-52-53-56-32-55-31-65-16c-35-8-89-15-119-15h-56l-57 15c-32 8-81 27-109 41l-51 26-53 50-52 49-43 85-44 86-3 101-4 102 21 62c12 35 37 87 56 117l34 54 51 44c57 50 120 84 189 103l46 13 75 1 75 1 51-14zm-206-25c0-25 33-151 40-151 10 0 30 81 30 124v36h-70v-9zm103-61c3-38 10-78 16-87l10-18 5 15c13 36 35 144 30 152-3 4-19 8-36 8h-31l6-70zm-175 49c-26-15-23-29 29-134 64-128 78-126 47 5-8 36-18 81-22 100l-7 35-15 2c-8 2-23-2-32-8zm268 3c-8-13-46-188-46-212 0-33 15-23 35 23 10 23 32 70 49 104l30 63-9 9c-6 5-20 12-32 15l-21 7-6-9zm-360-51-18-20 14-19c44-61 152-191 156-188 2 3-20 58-50 123l-53 118-16 3-15 3-18-20zm448 7c-18-29-104-210-104-219v-10l9 6c5 3 44 49 87 102l78 96-23 18c-27 22-37 23-47 7zm-518-64c-9-8-16-21-15-27 0-12 178-158 201-166l12-4-20 30c-31 49-143 183-153 183-5 0-17-7-25-16zm520-85c-43-55-76-102-73-105 5-5 175 124 196 150l14 16-18 20c-10 11-23 20-29 20s-46-45-90-101zm-209 51c-3-8-13-40-22-70s-27-72-40-92l-25-37-42-25c-24-14-65-30-93-37-27-7-54-16-58-20l-9-7 72-23 71-22 39-28 38-28 25-53c14-29 28-70 32-91 4-20 10-39 14-42 4-2 18 28 30 68l23 72 25 33c32 43 63 62 140 88 35 12 64 25 64 29 0 5-24 16-53 25-77 24-114 46-145 85l-28 35-26 77-27 78-5-15zm-370-38c-10-10-17-24-17-31v-12l116-55c63-31 118-54 121-51 5 6-129 119-177 150l-27 17-16-18zm633-58c-87-69-112-94-96-94 15 0 236 110 236 117 0 12-30 53-38 53-4 0-50-34-102-76zm-682-39-11-26 9-8c5-4 50-18 99-29 167-40 179-25 35 42-55 25-105 46-110 46-6 0-16-11-22-25zm720-22c-54-25-98-51-98-56v-9l48 7c55 7 179 38 187 47 3 3 1 17-4 32l-11 26h-12c-7 0-57-21-110-47zm-742-68c-4-14-4-30-1-35l6-10h35c43 0 124 20 124 30 0 7-126 40-150 40-4 0-11-11-14-25zm807 10c-29-7-61-16-70-20l-18-7 45-14c25-7 64-14 88-14h43l-3 32-3 33-15 1c-8 1-39-4-67-11zm-783-84-25-7 2-28c1-16 4-31 7-33 2-3 39 3 80 12l76 17v9c0 7-38 20-100 33-8 2-26 1-40-3zm757-9-57-14 5-8c5-7 49-19 133-35l33-7-3 39-3 38h-25c-14 1-51-5-83-13zm-616-53c-69-13-151-39-151-47 0-4 3-17 6-29l6-23h13c19 0 215 93 215 102 0 10-30 9-89-3zm469 6c0-8 198-105 215-105h15l11 27 10 26-8 7c-9 9-194 50-223 50-11 0-20-2-20-5zm-467-80c-62-29-113-58-113-63 0-6 8-20 19-33l18-22 59 46c84 65 151 126 139 126-5 1-61-24-122-54zm437 47c0-7 110-98 184-151l19-14 19 22c10 13 18 27 18 33 0 8-215 118-232 118-5 0-8-4-8-8zm-390-98-95-76-3-17-3-18 15-12 16-13 14 5c13 5 139 157 159 193l8 14h-8c-4 0-51-34-103-76zm361 68c8-22 154-202 165-202 6 0 19 9 29 20l18 20-13 15c-13 16-162 134-189 150l-14 8 4-11zm-236-30c-9-6-103-121-149-181l-10-13 23-19c13-11 27-19 32-19 8 0 95 172 112 223 7 19 6 20-8 9zm211-14c10-32 93-201 104-212l9-9 25 17c31 20 32 26 8 52-9 10-46 54-80 97-35 42-66 77-68 77-3 0-2-10 2-22zm-224-105c-29-57-52-110-52-118v-16l23-8 22-9 11 11c15 16 57 198 52 223l-4 19-52-102zm188 74c0-16 10-71 22-123l21-94h58l5 13 5 13-45 95c-25 52-50 101-55 109l-11 15v-28zm-34-84c-4-10-10-48-13-85l-6-68h31c17 0 33 3 35 8 6 9-23 144-33 155l-7 8-7-18zm-100-62c-9-39-16-75-16-80v-11h70v36c0 44-20 124-30 124-5 0-16-31-24-69z"/></g><g fill="#5c166d" transform="matrix(.1 0 0 -.1 0 300)"><path d="M0 1500V0h1480v840h10c11 0 22-36 19-65-1-11-1-190-1-397l2-378h1490v3000H1510l-2-432-3-431-12-5-13-4v872H0V1500zm1240 1163c5-21 35-148 66-282l55-243-5-15-6-14-9 5c-5 4-12 21-16 39-7 31-31 138-89 384-14 61-26 123-26 137v26h10c5 0 14-17 20-37zm539 15c0-13-28-142-62-287l-62-264-12-5-13-4v20c0 29 116 537 127 555 2 4 8 7 14 7h9l-1-22zm-716-260c14-29 55-115 91-191l66-138-6-10-5-9-11 6c-6 4-50 90-99 191l-89 185 6 9c11 18 22 8 47-43zm907 34c0-10-40-100-90-201l-90-182-10 6c-5 3-10 10-10 14 0 5 40 93 89 195l90 186h21v-18zM963 2178c46-57 92-115 101-130l17-26-8-5c-14-9-25 2-121 121-85 105-107 142-83 142 6 0 48-46 94-102zm1167 91c0-12-157-214-188-242l-20-18-7 11-7 11 9 12c38 50 180 223 188 229 14 11 25 10 25-3zM844 2025c94-76 105-88 87-100l-10-5-100 81-101 81v30l14-5c7-3 57-40 110-82zm1426 71v-14l-97-76c-91-72-123-89-123-66 0 11 196 170 211 170 5 0 9-6 9-14zm-557-90c142-48 261-117 395-228l83-70 89-101 90-101v-42l-84-94c-248-282-533-440-791-440h-74l-71 15c-137 29-270 94-414 202l-84 63-103 109c-57 60-112 122-121 139l-18 30 45 60c25 33 93 106 151 161l106 101 96 64c128 85 243 135 360 156l47 9 110-4 111-3 77-26zM693 1889c118-59 114-56 100-70l-10-10-104 51c-118 58-113 55-104 69 9 15 4 17 118-40zm1719 36 1-10-89-47c-49-25-98-48-109-50l-20-3v24l100 50c100 49 116 54 117 36zM547 1718l103-23v-25l-27 1c-16 0-68 10-117 22l-89 22-5 13-4 12h18c10 0 65-10 121-22zm2033 12v-9l-47-14c-27-8-78-20-116-27l-67-14-12 12-11 11 14 5c30 12 186 44 212 45l27 1v-10zM523 1485l-3-10-147-3c-81-1-153 0-161 3l-13 5 6 10 6 11 157-3 157-3-2-10zm2251 6 6-9-27-5c-23-4-237-3-281 2l-13 1 6 10 6 10h298l5-9zM650 1291c0-6-4-12-8-15-12-7-192-46-215-46h-19l4 13 5 12 89 21c49 12 101 22 117 23l27 1v-9zm1822-12c51-12 97-25 102-30l9-8-16-7-16-6-102 24-102 23-5 13-4 12h20c11 0 62-10 114-21zM797 1144l3-10-95-47c-91-45-135-57-135-38 0 10 201 111 214 107 6-1 11-7 13-12zm1525-40c47-24 89-48 93-54l6-10h-21c-11 0-63 21-115 46l-95 47v28l23-7c12-3 61-26 109-50zm-1382-74c0-10-200-170-212-170-5 0-8 7-8 15v15l101 80 100 80 10-5c5-4 9-10 9-15zm1234-66 96-77v-27l-12 1c-16 0-200 150-206 167l-4 12h15c8 0 58-34 111-76zm-1100-13 5-8-42-55c-87-114-158-198-167-198-25 0-3 38 87 150 54 66 101 120 105 120s9-4 12-9zm956-111c52-66 96-127 98-135l3-15h-10c-13 0-35 25-135 150-42 52-76 101-76 108v12h25l95-120zm-899-144-90-186h-15c-9 0-16 2-16 5 0 9 171 359 182 372l11 14 9-9 10-10-91-186zm703 121c19-40 57-119 85-177s51-111 51-117v-13h-25l-89 184-88 184 7 11 6 11 9-5c5-3 25-38 44-78zm-483-34c-16-72-66-287-96-413l-22-94-12-4-11-4v25c0 14 9 63 19 109 11 46 38 164 61 262 23 99 44 184 47 189l5 9 11-11 10-10-12-58zm365-198c35-149 63-280 63-293l1-24-12 4-12 4-13 50c-31 116-113 490-113 512v24l11-4 12-4 63-269zm-321 1419c-113-19-255-80-385-167l-75-50-131-131c-72-72-137-141-143-153l-11-22 51-62c168-201 379-355 584-425l80-27 125-1h125l70 23c39 12 111 43 160 68l90 44 72 55c95 71 192 162 269 253l64 74-21 29c-43 60-196 213-274 272-142 110-213 149-345 191l-85 27-95 3c-52 2-108 1-125-1zm224-55c140-32 279-164 331-314l20-58v-172l-11-40c-6-22-22-64-37-94l-25-53-49-53c-82-90-172-138-293-155l-60-9-70 10-70 10-73 36-73 36-53 54-54 53-35 68-36 68-12 71-12 71 11 73 11 73 35 71 35 70 43 46c124 132 289 180 477 138zm-201-24c-8-8 18-125 30-137l10-10 10 62c6 33 9 67 5 75l-5 15h-22c-13 0-25-2-28-5zm99-1c-11-11-8-53 7-109l13-50 13 45c7 25 13 61 14 80l1 35-20 3c-12 2-24 0-28-4zm-186-23-14-9 48-101c27-56 52-101 57-101 10 0 11-6-12 91-11 46-23 94-25 107l-5 22h-18c-9 0-23-4-31-9zm274-3c-12-35-45-201-40-206 7-7 4-11 53 92l43 88-3 17-3 16-23 3-22 3-5-13zm-348-32c-9-7-17-18-17-25 0-13 142-193 147-187 6 5-92 212-103 219l-9 5-18-12zm439-3c-12-12-96-196-92-200 4-5 104 112 133 155l15 22-12 15c-13 16-32 19-44 8zm28-116-72-90c-37-42 3-22 86 44l90 72-11 18c-6 10-17 21-24 23l-13 5-56-72zm-553 44-11-19 91-72c50-39 93-69 95-67 3 3-26 43-63 90l-68 86-17 1h-17l-10-19zm315-43c-50-163-83-200-207-239-35-11-65-21-67-23s23-12 55-21 77-28 100-41l42-25 25-42c13-23 30-62 37-87s15-49 19-53l7-8 22 66c36 110 85 156 201 191l52 16-8 7c-5 4-38 16-73 26l-63 19-42 41-42 40-23 73c-24 73-29 82-35 60zm-373-31-11-23 105-53c58-28 108-50 111-47 3 4 3 7 1 9s-41 33-85 70c-45 37-88 67-96 67h-15l-10-23zm634-49c-48-39-86-73-84-75 3-2 52 19 111 46l106 50v10c0 5-3 16-6 25l-6 16-17-1c-9 0-56-32-104-71zm-673-32-6-25 7-10c3-6 14-11 23-11 10 0 42-6 72-14 30-7 70-16 88-20l33-6-7 11c-6 10-185 99-199 99-2 0-7-11-11-24zm724-23c-54-25-98-50-98-55v-8l28 6c15 3 53 12 85 20s67 14 77 14 22 5 25 11l7 10-6 25c-4 13-10 24-14 24s-51-21-104-47zm-746-80 3-28 19-3c10-2 45 2 77 9l59 13-8 7c-8 8-104 29-133 29h-20l3-27zm788 16c-19-5-42-12-50-15l-15-6 55-14c30-8 66-14 80-12l25 3v50l-30 2c-16 1-46-3-65-8zm-783-86c-4-3-7-17-7-30v-23h24c33 0 126 22 126 30s-83 30-113 30c-13 0-27-3-30-7zm766-5c-18-6-33-14-33-18 0-8 92-30 126-30h25l-3 28-3 27-40 2c-22 1-55-3-72-9zm-649-62c-50-13-96-26-102-30l-12-7 11-22c7-12 13-23 14-25 5-6 205 92 205 100 0 11-12 10-116-16zm526 16c0-5 46-30 101-57l101-47 9 13c5 8 9 22 9 31v17l-37 10c-21 5-63 14-93 21-30 6-63 14-72 17l-18 4v-9zm-491-83c-57-28-105-52-107-54-7-6 23-45 34-45 12 0 168 122 179 140 9 15 6 14-106-41zm480 24c19-15 60-49 90-75 31-26 61-48 66-48 15 0 35 21 35 37v13l-90 45c-50 24-100 46-113 50l-22 6 34-28zm-433-78c-43-35-83-68-89-74l-11-11 19-20c10-11 21-20 25-20 6 0 124 145 143 177l8 13-8-1c-4 0-43-29-87-64zm384 60c0-4 32-47 71-96l71-89 18 10c10 5 20 16 23 24l5 14-61 49c-82 65-127 96-127 88zm-332-110c-38-46-68-91-68-99v-15l21-6 21-7 8 9c14 14 100 203 92 203-4 0-37-38-74-85zm305 53c8-18 29-64 47-101l33-69 13-5 14-5 15 12c8 7 15 16 15 20 0 10-125 166-140 175l-11 7 14-34zm-53 0c0-13 23-114 41-180l10-38h18c10 0 23 6 28 13l10 12-48 103c-46 97-59 117-59 90zm-195-98-50-101 15-9c8-5 23-10 32-10h18l5 23c3 12 12 54 20 92 9 39 18 78 21 88l5 17h-8c-5 0-31-45-58-100zm156-37c-7-33-11-68-9-79l3-19 23-3 22-3 6 15 6 16-12 52c-7 29-16 59-20 66l-7 14-12-59zm-93-20c-8-38-13-71-11-75 2-5 15-8 27-8h24l5 28 5 27-11 48c-6 26-14 47-17 47-4 0-14-30-22-67z"/></g><g fill="#320e3e" transform="matrix(.1 0 0 -.1 0 300)"><path d="M0 1500V0h1470v404c0 222 3 411 6 420s12 16 20 16h14V0h1490v3000H1510v-867l-7-6-6-7-14 11-13 11v858H0V1500zm1236 1189c11-19 134-562 128-570-3-5-11-9-18-9h-13l-16 63c-24 94-117 503-117 516v11h14c8 0 18-5 22-11zm544-18c0-27-39-205-96-444-15-59-31-110-36-113l-10-6-10 10-10 10 10 44c36 159 114 496 118 511l5 17h29v-29zm-733-213c27-45 173-356 173-370v-18h-31l-90 186c-49 102-89 192-89 200v14h14c8 0 18-6 23-12zm933 2c0-5-25-63-56-127-31-65-72-151-91-190l-34-73h-29v19c0 10 39 100 87 200l87 181h36v-10zm150-195c0-8-43-68-96-135l-97-120h-13c-7 0-15 4-18 9l-6 9 22 28c12 16 60 75 106 132l84 102 9-6c5-3 9-11 9-19zM984 2159c53-67 96-127 96-135v-14h-28l-85 103c-46 56-91 114-100 128l-17 26 7 6c3 4 12 7 19 7h12l96-121zm1294-57 3-11-28-25c-15-14-63-53-106-86l-79-62-14 6-15 6 9 16c12 22 205 174 216 170 6-1 11-7 14-14zm-1454-56c44-35 92-74 104-86l24-22-11-11-11-11-23 13c-12 8-61 46-109 84l-88 70v27h32l82-64zm809-17 102-20 92-44c114-54 214-122 323-221 81-73 187-186 217-231l14-21-17-34-17-33-136-136-136-136-89-58c-108-70-208-117-306-144l-75-21h-110l-110 1-55 14c-165 41-293 111-456 248-90 76-237 233-257 274l-10 23 26 37c36 52 201 221 262 269 28 21 52 42 55 45 3 4 41 29 85 57 100 62 200 105 290 126 132 30 183 31 308 5zm-933-139 100-50v-30l-17 1c-10 0-61 22-113 48l-95 48-3 16-3 17h15c9 0 61-23 116-50zm1720 35v-15l-101-50-101-51-16 3-17 3v25l100 49c55 27 108 50 118 50l17 1v-15zM532 1725c42-8 89-20 104-25l27-11-14-14-14-14-65 15c-36 8-85 18-108 23-24 5-49 14-55 20l-12 12 14 8c7 5 21 7 30 5s50-10 93-19zm2048 5c0-14-30-25-134-50l-89-21-13 5c-8 3-14 12-14 20v14l78 17c42 9 82 18 87 20 6 2 27 4 48 4l37 1v-10zM514 1504c21-8 21-30 0-38-9-3-75-6-148-6H234l-20 15-19 15 15 10 15 10h137c75 0 143-3 152-6zm2264-16-5-13h-306l-4 13-5 12h324l-4-12zM650 1300l15-10-19-15c-11-8-28-15-39-15-10 0-55-9-99-20l-80-21-14 12-15 12 8 8c7 7 186 53 223 58 3 0 12-4 20-9zm1833-21 97-22v-13c0-7-4-15-10-19l-9-6-107 25c-59 14-112 30-118 36l-11 11 15 9c8 5 22 8 30 6s59-14 113-27zM800 1145v-16l-102-49c-56-28-108-50-115-50h-14l3 18 3 17 95 47c52 26 103 47 113 47l17 1v-15zm1520-34 95-48 3-16 3-17h-14c-20 0-188 78-209 97l-18 16 6 8c10 17 39 8 134-40zm-1376-69 5-9-32-30c-18-16-64-55-103-86l-71-57h-33v27l103 82c99 78 120 90 131 73zm1215-59c47-38 94-76 104-86l18-18-6-9c-7-12-42-13-47-2-1 4-37 34-78 66s-83 67-92 78l-18 20 6 9c10 17 27 9 113-58zm-1079-37c0-7-44-68-97-135l-96-121h-13c-7 0-15 4-18 9l-6 9 38 49c20 28 64 84 97 126l60 76h18l17 1v-14zm955-105 95-120v-31h-28l-96 119-96 119v32h29l96-119zm-815 43c0-9-40-99-89-200l-90-184h-31v14c0 8 40 98 89 200l90 186h31v-16zm631-91c28-60 69-146 91-192l39-84-9-9-10-10-11 7c-16 9-181 353-181 376v19h29l52-107zm-487 58c4-5-5-56-18-113-14-56-41-175-61-263s-40-170-45-182l-10-23h-15c-8 0-15 5-15 10 0 15 108 496 122 543l11 37h13c7 0 15-4 18-9zm303-37c6-21 18-70 27-109 8-38 31-139 51-223 19-84 35-166 35-182v-30h-29l-10 38c-6 20-17 69-25 107-18 80-81 356-91 397l-7 27 7 11c12 20 30 5 42-36zm-242 1189c-16-2-65-13-109-24l-79-20-87-44-87-44-82-61c-90-69-228-199-286-273l-38-48 14-26c8-15 61-74 119-133l105-107 80-58c44-32 116-78 160-101l80-42 88-27 87-26h103l102 1 73 20c40 11 108 37 150 57l77 36 95 68c52 37 131 102 176 146 79 76 164 174 164 188 0 15-115 145-189 212-157 144-309 236-466 282l-70 20-75 5c-41 2-88 2-105-1zm155-43 65-11 62-29 61-30 50-45c88-79 142-186 156-311l7-59-11-70-11-69-36-74-37-73-58-54-58-54-62-30-63-31-76-11-75-12-75 11-74 11-72 37-72 36-54 57-55 57-30 60c-35 69-52 143-52 222v58l15 59c22 84 49 137 101 194 124 138 270 190 454 161zm-160-52c0-15 18-85 27-108l6-15 7 30c4 17 8 47 9 68l1 37h-50v-12zm101-35c0-27 4-57 8-68l8-20 11 40c6 22 14 52 18 68l6 27h-52l1-47zm-178 30-13-5 1-16c0-9 20-55 45-102l45-85-5 25c-2 14-10 54-17 90-17 93-25 106-56 93zm268-11c-12-22-42-174-37-180 5-4 86 164 86 178 0 4-9 10-20 13l-20 5-9-16zm-361-36-12-15 63-81c34-44 64-78 66-76 3 2-14 45-38 95l-42 91h-12c-7 0-18-7-25-14zm407-78c-42-89-52-123-23-82 8 10 37 48 66 84l51 64-17 13c-10 7-21 13-25 13s-28-42-52-92zm-475 20c-7-7-12-15-12-19 0-10 151-132 156-126 5 5-115 157-125 157-4 0-12-5-19-12zm538-60c-81-105-81-107 9-38 45 35 84 67 87 72l6 9-12 14c-21 25-33 17-90-57zm-233 6c-4-4-7-16-7-26 0-11-11-43-25-73l-26-54-33-29-34-30-66-22c-36-12-66-23-66-25s30-13 66-25l66-22 36-32 35-31 22-50c12-27 25-63 29-80l8-30 23 63c12 34 33 78 46 97l24 35 45 24c25 13 65 30 90 36l45 13-20 7c-11 5-46 18-77 30l-58 22-34 38-34 37-19 54c-11 30-22 60-24 67l-4 13-8-7zm-367-25c-7-11-10-22-8-24 8-8 146-73 168-80l25-8-80 66c-44 37-83 67-87 67s-12-9-18-21zm648-41c-42-35-75-64-73-66 4-4 185 79 185 85 0 10-21 43-28 43-4 0-42-28-84-62zm-692-45-7-16 10-10c10-10 156-46 186-46h20l-90 44c-101 50-110 52-119 28zm725-23c-46-22-81-43-79-46 7-7 178 32 190 44l9 9-7 16c-9 24-20 22-113-23zm-745-66c-3-9-4-20 0-25l5-9 42 1c23 1 53 4 67 9l25 7-15 6c-15 6-99 26-111 27-4 0-10-7-13-16zm804 5c-19-6-42-13-50-16l-15-6 25-7c14-5 44-8 68-9l42-1v50l-17-1c-10 0-34-5-53-10zm-804-98c-8-13 4-41 18-41 12 0 83 18 106 27l15 6-25 7c-14 5-44 8-67 9l-42 1-5-9zm764-1-25-7 15-6c16-7 99-26 113-27 4 0 7 11 7 25v25l-42-1c-24-1-54-4-68-9zm-655-61c-44-11-83-23-88-28l-8-8 7-16c9-23 15-22 110 22 119 56 114 63-21 30zm555 16c0-8 158-85 174-85h14l6 17 7 16-8 8c-4 4-48 17-96 29-97 22-97 22-97 15zm-15-60c17-14 56-46 87-70l56-45 16 16c9 8 16 19 16 23 0 7-164 90-194 99-6 2 3-8 19-23zm-506-26c-46-22-85-42-87-44-5-5 18-45 26-45 11 1 166 130 155 130-5 0-47-18-94-41zm47-59c-42-33-76-64-76-69s7-15 16-22l16-13 34 39c44 52 97 125 90 125-2 0-39-27-80-60zm414 55c0-11 121-155 129-155 5 0 15 7 22 16l13 16-39 34c-56 48-125 96-125 89zm-345-87c-32-40-63-79-68-85l-9-13 12-15c18-21 35-19 47 8 42 87 82 177 80 177s-29-33-62-72zm322 7c17-33 38-77 48-97 19-42 23-44 50-24l18 13-55 69c-30 38-63 76-73 84l-18 15 30-60zm-265-51c-46-93-50-109-25-118l16-7 9 9c9 9 51 193 45 198-2 2-22-35-45-82zm198 64c1-28 38-170 47-179l10-10 16 7c23 8 22 11-23 108-38 82-50 101-50 74zm-123-78c-4-8-11-37-17-64l-11-49 13-8c7-5 18-7 23-6l10 4 3 29c2 16-1 47-6 69l-9 40-6-15zm79-12c-3-13-6-44-6-70v-48h13c6 0 18 4 25 9l13 8-15 57c-17 68-21 74-30 44z"/></g><g fill="#101111" transform="matrix(.1 0 0 -.1 0 300)"><path d="M0 1500V0h1470v841l16 6 16 6 9-14 9-14V0h1480v3000H1520l-2-437-3-438h-40l-3 438-2 437H0V1500zm1237 1198c10-14 28-81 63-238 11-52 25-113 30-135 35-152 42-184 38-201l-3-19-17-3-17-3-14 53c-8 29-27 105-42 168-14 63-39 171-55 239l-28 123 5 14c6 17 27 18 40 2zm550-4 6-16-37-167c-21-91-49-215-63-276l-26-110-12-14-13-13-11 6-11 7v25c0 29 105 500 125 562 3 6 11 12 20 12h16l6-16zm-650-404c50-102 92-192 92-201l1-17-16-6c-27-10-13-34-164 276l-52 108 6 16 6 15 17-3 18-3 92-185zm840 179 12-12-9-21c-22-58-173-362-182-367-16-10-38 0-38 17 0 8 34 85 76 172 42 86 82 172 90 190l14 32h13c7 0 18-5 24-11zM977 2178c49-62 96-124 103-137l12-24-13-8c-8-5-18-7-24-6-11 4-85 92-160 190l-45 59v38h37l90-112zm1161 91 3-16-80-99c-43-54-90-112-103-128l-25-29-16 6-17 6v15c0 8 46 72 101 141l101 126 17-3 16-3 3-16zM846 2038l103-83v-16l1-17-15-6-14-5-69 52c-37 29-85 66-105 82l-37 30v45h33l103-82zm1432 60-3-23-103-82-103-82-14 6c-16 6-19 21-7 39 4 6 50 46 102 88l95 76h36l-3-22zm-614-69 91-21 88-44c112-55 212-124 313-216 87-79 194-195 214-233l13-23-7-27-7-27-142-142-142-142-100-65c-114-75-180-107-280-139l-70-22-110-5-110-5-86 20-87 21-83 39c-141 65-326 205-436 328-28 33-65 75-82 94s-33 43-37 52l-5 18 8 14c4 8 41 52 80 98 80 92 157 163 272 251l76 57 100 49 100 49 65 16c97 23 98 24 189 25l84 1 91-21zm-964-132 105-52 3-16 3-16-16-7-17-6-109 52-109 52v16c0 42 15 40 140-23zm1719 44 14-9-6-15-6-15-107-52-108-51-13 5-13 5v36l103 51c112 56 116 58 136 45zM580 1722l75-18v-39l-25-3c-14-2-70 8-125 21l-100 24-3 23-4 23 54-7c29-4 87-15 128-24zm2006 17 6-11-13-14-14-14-106-21-106-22-16 6-17 6v30l38 10c69 19 167 39 194 40l27 1 7-11zM534 1501c4-5 3-16 0-25l-6-16H212l-12 15-12 14 7 11 6 10h328l5-9zm2251-1 7-11-12-14-12-15h-296l-13 16-13 16 15 9 14 9h304l6-10zM660 1291c0-11-4-22-8-25-11-7-210-46-233-46h-19v38l18 7c24 10 182 42 215 44l27 1v-19zm1801 0c52-11 102-23 112-26l17-7v-14c0-8-7-17-15-21l-16-5-107 21-107 22-15 15-15 15 15 9c20 13 24 13 131-9zM800 1160l15-9-11-18-11-17-103-47-103-47-14 5-14 6 3 16 3 16 100 51c110 57 113 58 135 44zm1514-40c57-27 108-55 112-61l6-11-14-14-15-15-105 50c-109 51-124 62-114 86 8 22 15 20 130-35zm-1367-77 7-17-45-39c-24-22-73-62-108-89l-65-48-10 3-11 4v42l100 80c55 44 106 80 113 81 7 0 16-8 19-17zm1234-70 99-78v-17c0-9-5-20-10-23l-11-7-27 18c-15 9-64 46-109 82l-83 65v17c0 22 11 32 28 25 8-3 59-40 113-82zm-1096-13 6-10-12-22c-7-13-53-74-102-135l-90-113h-37v43l43 52c23 29 56 70 72 91 78 100 104 120 120 94zm912-61c52-64 112-140 137-174l9-12-6-17-6-16h-30l-100 126c-56 70-101 132-101 139 0 15 10 25 26 25h13l58-71zm-772-8 5-18-92-189-93-189-16-3-16-3-7 17-6 17 39 81c158 330 145 306 167 306h13l6-19zm666-167 90-187-3-21-3-21h-30l-75 150c-42 83-84 169-94 192l-19 42 6 15 6 16h31l91-186zm-521 110c0-14-13-80-30-147-16-67-43-185-60-262-17-76-36-145-42-152-14-18-35-16-42 3l-6 16 10 37c5 20 18 74 29 121 72 314 96 406 104 412 6 3 16 4 24 1l13-5v-24zm316-74c12-52 40-175 63-272 22-97 41-186 41-198v-21l-16-6-16-6-8 13c-5 8-21 66-35 129-15 64-41 172-57 241s-32 147-35 173l-6 49 24-4 24-3 21-95zm-326 1226c-121-26-255-92-384-188l-81-61-107-108c-58-60-109-118-113-129l-7-21 18-27c9-15 65-74 123-132l106-105 80-57c138-96 237-143 368-173l68-15h59c189 0 390 90 608 272l83 70 70 82c38 44 69 86 69 92 0 11-39 58-120 145-145 155-353 292-518 340l-67 20-95 4-95 4-65-13zm210-16 65-11 70-33 70-33 52-47 52-47 31-54c17-29 40-80 51-112l20-58v-180l-21-59c-26-77-60-134-113-190l-42-46-59-34c-32-20-84-43-115-53l-56-17-80 1h-80l-54 16c-29 9-82 32-116 52l-63 35-51 55-50 56-31 63-30 64-12 75-11 75 12 73 12 73 31 65 31 66 66 65 66 65 56 27c54 27 158 55 209 57 14 0 54-4 90-9zm-137-90c9-67 23-70 29-5l3 39-19 4-19 4 6-42zm88 8c1-18 4-44 8-58l7-25 12 47c7 26 12 52 12 57v11h-40l1-32zm-184 5c-3-5 11-39 29-78l34-70-5 40c-4 22-11 57-16 78l-10 37h-14c-8 0-16-3-18-7zm264-59c-6-37-10-68-8-70s16 23 31 56l28 59-7 11c-3 5-12 10-19 10h-13l-12-66zm-346 16-7-11 15-22c8-12 31-40 51-62l36-40-28 60c-41 89-51 101-67 75zm417-56c-18-36-31-68-29-70 6-6 92 105 92 118 0 7-7 14-15 16l-15 3-33-67zm-487-5-7-10 16-18c22-24 114-89 100-71-38 53-88 110-95 110-4 0-11-5-14-11zm564-22c-14-18-34-45-45-61l-18-29 19 11c11 6 40 29 64 50l44 39-7 11c-12 19-29 13-57-21zm-622-44c-11-11-8-30 6-36 6-3 39-17 72-32 65-29 65-27-10 34-52 43-57 45-68 34zm347-48-18-59-40-42-41-42-62-22c-35-13-63-24-63-26s26-11 58-21l57-18 42-41 41-41 22-62 23-62 18 52c33 94 97 155 189 180l45 12-20 8c-11 4-41 15-66 24l-47 17-37 38-37 37-22 63-23 63-19-58zm312 10c-31-25-56-48-56-50s15 3 33 11c17 8 49 22 70 31l38 16-3 15c-2 9-8 17-14 19l-11 4-57-46zm-704-62 3-17 70-18c39-9 74-16 79-15 12 4-120 67-140 67h-15l3-17zm731-13c-35-16-63-32-63-34 0-6 65 5 114 19l41 12 3 17 3 16h-18c-10 0-46-14-80-30zm-751-77 4-18 43 2c73 3 72 17-2 27l-49 7 4-18zm796 10c-41-6-34-20 13-28l41-7 9 13c16 27 2 32-63 22zm-795-99-6-15 9-8 9-7 45 11 45 12-22 11c-12 7-33 12-48 12h-26l-6-16zm773 7-20-8 10-5c5-3 28-9 52-13l42-7v42l-32-1c-18 0-42-4-52-8zm-631-58c-11-3-44-11-72-20l-53-14v-29h15c17 0 135 57 135 65 0 3-1 4-2 4-2-1-12-3-23-6zm545 3c0-4 33-21 73-40l72-33 9 14 8 15-8 7c-5 4-34 13-64 20s-63 15-72 18c-10 2-18 2-18-1zm-562-88-68-31v-13c0-7 5-16 10-19l11-7 55 43c47 36 73 60 62 58-2 0-33-14-70-31zm542 27c0-2 25-25 56-49l57-44 13 5c8 3 14 10 14 17v11l-43 19c-23 11-54 26-69 33-16 8-28 11-28 8zm-494-91c-57-46-65-58-44-70l11-7 25 29c13 16 32 38 41 49 48 58 38 58-33-1zm462 30c6-10 29-39 51-64l39-45 13 12 13 13-17 18c-10 10-38 34-63 52l-46 33 10-19zm-32-79c14-33 28-66 31-72 6-16 29-17 38-3l7 11-25 32c-14 18-37 46-52 62l-25 30 26-60zm-375-6-42-52 4-11c2-6 10-12 18-14l14-2 28 61c15 34 26 63 24 66-3 2-23-20-46-48zm295 19c3-15 11-51 18-80l11-53 18-3 17-3v18c-1 10-16 47-35 83l-35 65 6-27zm-223-56-30-67 15-9 14-8 8 12c10 16 33 130 27 136-2 2-17-26-34-64zm73-33c-3-17-6-40-6-50v-19h29l3 23c4 31-3 77-12 77-4 0-10-14-14-31zm89 8c-4-14-5-36-3-48l3-24 19-3 19-4-7 43c-4 24-11 48-16 53l-9 9-6-26z"/></g></g></svg>
